<mxfile host="app.diagrams.net" modified="2021-10-18T12:51:01.174Z" agent="5.0 (Macintosh; Intel Mac OS X 10_15_6) AppleWebKit/537.36 (KHTML, like Gecko) Chrome/94.0.4606.71 Safari/537.36" etag="1-X3cMTilpDDzhLCJu96" version="15.5.2" type="github">
  <diagram id="dH48dL0XdEI2RsnwLOjA" name="Page-1">
    <mxGraphModel dx="1033" dy="626" grid="1" gridSize="10" guides="1" tooltips="1" connect="1" arrows="1" fold="1" page="1" pageScale="1" pageWidth="827" pageHeight="1169" math="0" shadow="0">
      <root>
        <mxCell id="0" />
        <mxCell id="1" parent="0" />
        <mxCell id="GEsBxxL1YvwD2C1E7WMf-37" value="" style="rounded=0;whiteSpace=wrap;html=1;fillColor=#f8cecc;strokeColor=#b85450;" parent="1" vertex="1">
          <mxGeometry x="249" y="90" width="330" height="270" as="geometry" />
        </mxCell>
        <mxCell id="GEsBxxL1YvwD2C1E7WMf-34" value="" style="rounded=0;whiteSpace=wrap;html=1;fillColor=#d5e8d4;strokeColor=#82b366;" parent="1" vertex="1">
          <mxGeometry x="19" y="90" width="230" height="270" as="geometry" />
        </mxCell>
        <mxCell id="GEsBxxL1YvwD2C1E7WMf-35" value="" style="rounded=0;whiteSpace=wrap;html=1;fillColor=#d5e8d4;strokeColor=#82b366;" parent="1" vertex="1">
          <mxGeometry x="579" y="90" width="230" height="270" as="geometry" />
        </mxCell>
        <mxCell id="GEsBxxL1YvwD2C1E7WMf-14" style="edgeStyle=orthogonalEdgeStyle;rounded=0;orthogonalLoop=1;jettySize=auto;html=1;exitX=0.25;exitY=1;exitDx=0;exitDy=0;entryX=0.25;entryY=0;entryDx=0;entryDy=0;" parent="1" source="GEsBxxL1YvwD2C1E7WMf-1" target="GEsBxxL1YvwD2C1E7WMf-3" edge="1">
          <mxGeometry relative="1" as="geometry" />
        </mxCell>
        <mxCell id="GEsBxxL1YvwD2C1E7WMf-15" style="edgeStyle=orthogonalEdgeStyle;rounded=0;orthogonalLoop=1;jettySize=auto;html=1;exitX=0.75;exitY=1;exitDx=0;exitDy=0;entryX=0.75;entryY=0;entryDx=0;entryDy=0;" parent="1" source="GEsBxxL1YvwD2C1E7WMf-1" target="GEsBxxL1YvwD2C1E7WMf-10" edge="1">
          <mxGeometry relative="1" as="geometry">
            <Array as="points">
              <mxPoint x="399" y="100" />
              <mxPoint x="527" y="100" />
            </Array>
          </mxGeometry>
        </mxCell>
        <mxCell id="GEsBxxL1YvwD2C1E7WMf-16" style="edgeStyle=orthogonalEdgeStyle;rounded=0;orthogonalLoop=1;jettySize=auto;html=1;exitX=1;exitY=0.5;exitDx=0;exitDy=0;entryX=0.5;entryY=0;entryDx=0;entryDy=0;" parent="1" source="GEsBxxL1YvwD2C1E7WMf-1" target="GEsBxxL1YvwD2C1E7WMf-4" edge="1">
          <mxGeometry relative="1" as="geometry" />
        </mxCell>
        <mxCell id="GEsBxxL1YvwD2C1E7WMf-18" style="edgeStyle=orthogonalEdgeStyle;rounded=0;orthogonalLoop=1;jettySize=auto;html=1;exitX=0;exitY=0.5;exitDx=0;exitDy=0;entryX=0.5;entryY=0;entryDx=0;entryDy=0;" parent="1" source="GEsBxxL1YvwD2C1E7WMf-1" target="GEsBxxL1YvwD2C1E7WMf-2" edge="1">
          <mxGeometry relative="1" as="geometry" />
        </mxCell>
        <mxCell id="GEsBxxL1YvwD2C1E7WMf-1" value="EKS-Nodes" style="rounded=0;whiteSpace=wrap;html=1;" parent="1" vertex="1">
          <mxGeometry x="309" y="20" width="120" height="60" as="geometry" />
        </mxCell>
        <mxCell id="GEsBxxL1YvwD2C1E7WMf-20" style="edgeStyle=orthogonalEdgeStyle;rounded=0;orthogonalLoop=1;jettySize=auto;html=1;exitX=0.25;exitY=1;exitDx=0;exitDy=0;entryX=0.5;entryY=0;entryDx=0;entryDy=0;" parent="1" source="GEsBxxL1YvwD2C1E7WMf-2" target="GEsBxxL1YvwD2C1E7WMf-9" edge="1">
          <mxGeometry relative="1" as="geometry" />
        </mxCell>
        <mxCell id="GEsBxxL1YvwD2C1E7WMf-21" style="edgeStyle=orthogonalEdgeStyle;rounded=0;orthogonalLoop=1;jettySize=auto;html=1;exitX=0.75;exitY=1;exitDx=0;exitDy=0;entryX=0.5;entryY=0;entryDx=0;entryDy=0;" parent="1" source="GEsBxxL1YvwD2C1E7WMf-2" target="GEsBxxL1YvwD2C1E7WMf-19" edge="1">
          <mxGeometry relative="1" as="geometry" />
        </mxCell>
        <mxCell id="GEsBxxL1YvwD2C1E7WMf-2" value="cyberbet.node/type=worker" style="rounded=0;whiteSpace=wrap;html=1;" parent="1" vertex="1">
          <mxGeometry x="29" y="110" width="200" height="20" as="geometry" />
        </mxCell>
        <mxCell id="GEsBxxL1YvwD2C1E7WMf-3" value="cyberbet.node/type=high-memory" style="rounded=0;whiteSpace=wrap;html=1;" parent="1" vertex="1">
          <mxGeometry x="269" y="110" width="200" height="20" as="geometry" />
        </mxCell>
        <mxCell id="GEsBxxL1YvwD2C1E7WMf-17" style="edgeStyle=orthogonalEdgeStyle;rounded=0;orthogonalLoop=1;jettySize=auto;html=1;exitX=0.5;exitY=1;exitDx=0;exitDy=0;entryX=0.5;entryY=0;entryDx=0;entryDy=0;" parent="1" source="GEsBxxL1YvwD2C1E7WMf-4" target="GEsBxxL1YvwD2C1E7WMf-6" edge="1">
          <mxGeometry relative="1" as="geometry" />
        </mxCell>
        <mxCell id="GEsBxxL1YvwD2C1E7WMf-4" value="cyberbet.node/type=system-infra" style="rounded=0;whiteSpace=wrap;html=1;" parent="1" vertex="1">
          <mxGeometry x="596" y="110" width="200" height="20" as="geometry" />
        </mxCell>
        <mxCell id="GEsBxxL1YvwD2C1E7WMf-6" value="prometheus-operator&lt;br&gt;grafana&lt;br&gt;alertmanager&lt;br&gt;cluster-autoscaler&lt;br&gt;external-dns&lt;br&gt;descheduled&lt;br&gt;cert-manager&lt;br&gt;ingress-controller" style="rounded=0;whiteSpace=wrap;html=1;" parent="1" vertex="1">
          <mxGeometry x="596" y="210" width="200" height="130" as="geometry" />
        </mxCell>
        <mxCell id="GEsBxxL1YvwD2C1E7WMf-7" value="prometheus if needed&lt;br&gt;" style="rounded=0;whiteSpace=wrap;html=1;" parent="1" vertex="1">
          <mxGeometry x="259" y="210" width="200" height="50" as="geometry" />
        </mxCell>
        <mxCell id="GEsBxxL1YvwD2C1E7WMf-8" value="useful workloads" style="rounded=0;whiteSpace=wrap;html=1;" parent="1" vertex="1">
          <mxGeometry x="29" y="210" width="200" height="50" as="geometry" />
        </mxCell>
        <mxCell id="GEsBxxL1YvwD2C1E7WMf-24" style="edgeStyle=orthogonalEdgeStyle;rounded=0;orthogonalLoop=1;jettySize=auto;html=1;exitX=0.5;exitY=1;exitDx=0;exitDy=0;entryX=0.172;entryY=-0.003;entryDx=0;entryDy=0;entryPerimeter=0;" parent="1" source="GEsBxxL1YvwD2C1E7WMf-9" target="GEsBxxL1YvwD2C1E7WMf-8" edge="1">
          <mxGeometry relative="1" as="geometry" />
        </mxCell>
        <mxCell id="GEsBxxL1YvwD2C1E7WMf-9" value="onDemand" style="rounded=0;whiteSpace=wrap;html=1;" parent="1" vertex="1">
          <mxGeometry x="29" y="150" width="70" height="20" as="geometry" />
        </mxCell>
        <mxCell id="GEsBxxL1YvwD2C1E7WMf-29" style="edgeStyle=orthogonalEdgeStyle;rounded=0;orthogonalLoop=1;jettySize=auto;html=1;exitX=0.75;exitY=1;exitDx=0;exitDy=0;entryX=0.645;entryY=0.037;entryDx=0;entryDy=0;entryPerimeter=0;" parent="1" source="GEsBxxL1YvwD2C1E7WMf-10" target="GEsBxxL1YvwD2C1E7WMf-28" edge="1">
          <mxGeometry relative="1" as="geometry" />
        </mxCell>
        <mxCell id="GEsBxxL1YvwD2C1E7WMf-10" value="cyberbet.node/type=high-cpu" style="rounded=0;whiteSpace=wrap;html=1;" parent="1" vertex="1">
          <mxGeometry x="399" y="145" width="170" height="20" as="geometry" />
        </mxCell>
        <mxCell id="GEsBxxL1YvwD2C1E7WMf-11" value="high load apps" style="rounded=0;whiteSpace=wrap;html=1;" parent="1" vertex="1">
          <mxGeometry x="339" y="296" width="200" height="44" as="geometry" />
        </mxCell>
        <mxCell id="GEsBxxL1YvwD2C1E7WMf-32" style="edgeStyle=orthogonalEdgeStyle;rounded=0;orthogonalLoop=1;jettySize=auto;html=1;exitX=0.5;exitY=1;exitDx=0;exitDy=0;entryX=0.712;entryY=-0.025;entryDx=0;entryDy=0;entryPerimeter=0;" parent="1" source="GEsBxxL1YvwD2C1E7WMf-19" target="GEsBxxL1YvwD2C1E7WMf-8" edge="1">
          <mxGeometry relative="1" as="geometry" />
        </mxCell>
        <mxCell id="GEsBxxL1YvwD2C1E7WMf-19" value="spot" style="rounded=0;whiteSpace=wrap;html=1;" parent="1" vertex="1">
          <mxGeometry x="109" y="150" width="120" height="20" as="geometry" />
        </mxCell>
        <mxCell id="GEsBxxL1YvwD2C1E7WMf-36" style="edgeStyle=orthogonalEdgeStyle;rounded=0;orthogonalLoop=1;jettySize=auto;html=1;exitX=0.25;exitY=1;exitDx=0;exitDy=0;entryX=0.199;entryY=-0.031;entryDx=0;entryDy=0;entryPerimeter=0;" parent="1" source="GEsBxxL1YvwD2C1E7WMf-26" target="GEsBxxL1YvwD2C1E7WMf-7" edge="1">
          <mxGeometry relative="1" as="geometry" />
        </mxCell>
        <mxCell id="GEsBxxL1YvwD2C1E7WMf-26" value="spot/onDemand" style="rounded=0;whiteSpace=wrap;html=1;" parent="1" vertex="1">
          <mxGeometry x="269" y="145" width="120" height="20" as="geometry" />
        </mxCell>
        <mxCell id="GEsBxxL1YvwD2C1E7WMf-27" value="" style="edgeStyle=orthogonalEdgeStyle;rounded=0;orthogonalLoop=1;jettySize=auto;html=1;exitX=0.25;exitY=1;exitDx=0;exitDy=0;entryX=0.25;entryY=0;entryDx=0;entryDy=0;endArrow=none;" parent="1" source="GEsBxxL1YvwD2C1E7WMf-3" target="GEsBxxL1YvwD2C1E7WMf-26" edge="1">
          <mxGeometry relative="1" as="geometry">
            <mxPoint x="319" y="130" as="sourcePoint" />
            <mxPoint x="319" y="190" as="targetPoint" />
          </mxGeometry>
        </mxCell>
        <mxCell id="GEsBxxL1YvwD2C1E7WMf-31" style="edgeStyle=orthogonalEdgeStyle;rounded=0;orthogonalLoop=1;jettySize=auto;html=1;exitX=0.25;exitY=1;exitDx=0;exitDy=0;entryX=0.702;entryY=-0.052;entryDx=0;entryDy=0;entryPerimeter=0;" parent="1" source="GEsBxxL1YvwD2C1E7WMf-28" target="GEsBxxL1YvwD2C1E7WMf-11" edge="1">
          <mxGeometry relative="1" as="geometry" />
        </mxCell>
        <mxCell id="GEsBxxL1YvwD2C1E7WMf-28" value="spot/onDemand" style="rounded=0;whiteSpace=wrap;html=1;" parent="1" vertex="1">
          <mxGeometry x="449" y="175" width="120" height="20" as="geometry" />
        </mxCell>
        <mxCell id="GEsBxxL1YvwD2C1E7WMf-33" value="onDemand" style="rounded=0;whiteSpace=wrap;html=1;" parent="1" vertex="1">
          <mxGeometry x="636" y="150" width="120" height="20" as="geometry" />
        </mxCell>
        <mxCell id="PiQA91FEPXbktC4jWWFu-6" value="" style="group" vertex="1" connectable="0" parent="1">
          <mxGeometry x="19" y="375" width="157" height="30" as="geometry" />
        </mxCell>
        <mxCell id="PiQA91FEPXbktC4jWWFu-1" value="" style="rounded=0;whiteSpace=wrap;html=1;fillColor=#d5e8d4;strokeColor=#82b366;" vertex="1" parent="PiQA91FEPXbktC4jWWFu-6">
          <mxGeometry y="5" width="91" height="20" as="geometry" />
        </mxCell>
        <mxCell id="PiQA91FEPXbktC4jWWFu-4" value="- Required" style="text;html=1;strokeColor=none;fillColor=none;align=center;verticalAlign=middle;whiteSpace=wrap;rounded=0;" vertex="1" parent="PiQA91FEPXbktC4jWWFu-6">
          <mxGeometry x="97" width="60" height="30" as="geometry" />
        </mxCell>
        <mxCell id="PiQA91FEPXbktC4jWWFu-7" value="" style="group" vertex="1" connectable="0" parent="1">
          <mxGeometry x="190" y="375" width="155" height="30" as="geometry" />
        </mxCell>
        <mxCell id="PiQA91FEPXbktC4jWWFu-2" value="" style="rounded=0;whiteSpace=wrap;html=1;fillColor=#f8cecc;strokeColor=#b85450;" vertex="1" parent="PiQA91FEPXbktC4jWWFu-7">
          <mxGeometry y="5" width="91" height="20" as="geometry" />
        </mxCell>
        <mxCell id="PiQA91FEPXbktC4jWWFu-5" value="- Optional" style="text;html=1;strokeColor=none;fillColor=none;align=center;verticalAlign=middle;whiteSpace=wrap;rounded=0;" vertex="1" parent="PiQA91FEPXbktC4jWWFu-7">
          <mxGeometry x="95" width="60" height="30" as="geometry" />
        </mxCell>
      </root>
    </mxGraphModel>
  </diagram>
</mxfile>
